<svg xmlns="http://www.w3.org/2000/svg" version="1.1" xmlns:xlink="http://www.w3.org/1999/xlink"
    xmlns:svgjs="http://svgjs.dev/svgjs" width="2000" height="2242" viewBox="0 0 2000 2242">
    <g transform="matrix(1,0,0,1,-3.114825545171243,0)"><svg viewBox="0 0 321 360" data-background-color="#f9f6ed"
            preserveAspectRatio="xMidYMid meet" height="2242" width="2000" xmlns="http://www.w3.org/2000/svg"
            xmlns:xlink="http://www.w3.org/1999/xlink">
            <g id="tight-bounds" transform="matrix(1,0,0,1,0.4999765000000025,0)"><svg viewBox="0 0 320 360"
                    height="360" width="320">
                    <rect width="320.000094" height="360" fill="url(#018eb6ba-164e-4c12-ae90-b0c869fecd55)"
                        mask="url(#8e9141dc-c45f-48cb-b0b6-705824cdf0be)" data-fill-palette-color="tertiary"></rect>
                    <g><svg></svg></g>
                    <g><svg viewBox="0 0 320 360" height="360" width="320">
                            <g>
                                <path transform="translate(-74.99272,-51.79039) scale(4.65793,4.65793)"
                                    d="M20.6 59.9l0.8 1-0.4-1.3c-0.1-0.6-0.8 0.1-0.4 0.3M21.5 59.3c0.3 0.5 0.6 1 0.6 1.5 0 0.7 0.6 1 1.1 1.2-0.7-0.8-1.1-3-1.7-2.7M59.9 16.9c1.7 0 3.3-0.2 5.1 0.2 4.4 1.1 8.1 3.3 10.6 6.4l7 11.2c0.3 2.8 0.9 5.9 0.8 9.3 0.7 0 0.6-1 1.4-1.2-0.8 2-1.2 4.5-1.4 7.4-0.5-1.6 0-4 0.1-5.3-0.7 1.1-1.1 0.3-1.1-0.2 0.1-0.8-0.3-0.7-0.6-1-1.1-1-1.8-2.1-2.6-3.8 0.5-1.3 0.6-3.2-1-4.2-0.5-0.3-1.1-0.8-1.4-1.6-0.4-1.1-1.1-2.4-0.9-4.1 0.1-0.5-1.5 1.1-2.4 0.4-3.9-2.7-7.8-5.8-12.5-8.4-2.5 0-4.3-0.9-5.2-2-0.8-1-0.2-2.3 1-2.4 0.7 0 1.5-0.2 2.1 0.2 0.1-0.4 0.5-0.9 1-0.9M50 14.6l0.2 0.1c1 0.2 1.5 1.6 2.6 1.1 0 0.7 0.1 1.4-0.1 1.9-0.3 0.8-1.2 0.8-1.9 0.8-6.7-0.4-10.6 2.4-14.7 4.8-1.1 0.7-2.3 1.2-3.2 2.1-4.3 4-9 7.7-10.1 15.1l-0.9 8.2c-0.1 0.9-1.1 1.8-0.9 2.9l0.7 4.9c-0.7-0.7-1.1 0.2-0.9 0.6 0.1 0.3 0.5 1.3 1.1 0.4 0.8 1.5 1.6 4.4 2.7 5.7 3.4 4 7.8 7.6 11.4 11.2 0.9-0.2 1.6-0.2 1.8-0.8 0.3 0.6-0.3 1.2-0.8 1.3 1.6 1 3.4 1.9 5.8 2.1 3.1 0.2 6 0.7 8.7 1.4 1.4-0.4 2.8-0.6 4.3-0.7 0.5 0 0.8-0.8 1.4-1l0.1-1c0.6 0.9 0.5-0.3 0.1-0.9 0.7 0.6 0.9 1.1 1.2 1.5 0-0.3 0.8-1.4 0.8-0.1l0.2-1.3c0.3-0.2 0.4 1.1 0.7 0.2 0.3-0.9 0.9-0.2 1.5-0.5-0.2 0.4-0.1 1.2 0.6 0.7l0.8-0.7c0.5 1.2 1.3 0.7 1.7 0.5 4.4-2.8 8.8-6.1 13-9.4l-0.1 1.3 0.5-1.6c0.5 0.5 0.9 0.1 1.1-0.2 0.6-1 1.4-2 2.7-2.9-1.6 4.3-3.5 7.7-5.9 10.5l-1 1.2c0 0.7-0.2 1.6-1 1.7-0.4 0.1-1.2-0.2-1.8 0.4-0.3 0.4 0.7 1.2-0.1 0.6-0.7-0.5-1.4 0-2.2 0.2-0.6 0.2 0.4 0.8 0.6 1.2 0.2 0.4 0.4 0.8 0.3 1.3l-1.1-1.2c-1.3 0.7-2.1 2-3.2 3-0.5 0.4-0.3 1.1-0.3 1.7-0.7 0-1.5-0.2-1.9 0.2-0.3 0.4-0.2 1-0.2 1.6-1-0.1-1.1-1.6-2-1.3-0.9 0.2-1.9 0.3-2.7 0.8 0.6 1.2-1 0.5-0.8 0.7-1.5-0.9-2.8-1.6-4.4-1-3.4-1.1-7.6-0.6-10.7-0.2 0-0.5 0.1-1-0.1-1.1-0.2 0.5-0.8 0.3-0.7 0.3-1.9-1.3-3.8-2.1-5.8-3.2-1.8 0.2-3.5-0.7-4-1.2-1.4-1.3-3-0.6-4.3-0.9-2.8-0.7-3.8-3.6-4.1-5.6-0.2-1-1-1.4-1.3-1.3-1.3-4.2-3.3-8-4.9-11.9-0.4-1-0.3-2-0.3-3.1 0.5 0.2 1 0.1 0.9-0.6-0.5-3.3-1.7-5.8-3-8.2 0.7-3.4 0.8-7.4 2.4-10.4 1.4-2.7 4-4.1 5.8-6.4 0.6-0.8 0.6-1.9 1.2-2.6 2-2 4-4.1 6.2-5.9 1-0.8 2.2 0 3.7-0.3 0.5-1.8 2.5-3.4 4.4-2.9 0.8 0.2 2.4-1.9 2.9-2.1 0.8-0.3 0.4 0.8 0.4 1.5 1.9-1.5 4.5-2.3 6.9-3.2"
                                    fill="url(#018eb6ba-164e-4c12-ae90-b0c869fecd55)" fill-rule="nonzero" stroke="none"
                                    stroke-width="1" stroke-linecap="butt" stroke-linejoin="miter"
                                    stroke-miterlimit="10" stroke-dasharray="" stroke-dashoffset="0" font-family="none"
                                    font-weight="none" font-size="none" text-anchor="none"
                                    style="mix-blend-mode: normal" data-fill-palette-color="tertiary"></path>
                            </g>
                            <g transform="matrix(1,0,0,1,68.67718220281036,90)"><svg
                                    viewBox="0 0 182.64563559437929 180" height="180" width="182.64563559437929">
                                    <g><svg viewBox="0 0 182.64563559437929 180" height="180"
                                            width="182.64563559437929">
                                            <g><svg viewBox="0 0 192 189.21886574257428" height="180"
                                                    width="182.64563559437929">
                                                    <g transform="matrix(1,0,0,1,0,114.36738059405943)"><svg
                                                            viewBox="0 0 192 74.85148514851485"
                                                            height="74.85148514851485" width="192">
                                                            <g id="textblocktransform"><svg
                                                                    viewBox="0 0 192 74.85148514851485"
                                                                    height="74.85148514851485" width="192"
                                                                    id="textblock">
                                                                    <g><svg viewBox="0 0 192 74.85148514851485"
                                                                            height="74.85148514851485" width="192">
                                                                            <g transform="matrix(1,0,0,1,0,0)"><svg
                                                                                    width="192"
                                                                                    viewBox="4.38 -33.33 112.2 43.75"
                                                                                    height="74.85148514851485"
                                                                                    data-palette-color="#47285c">
                                                                                    <path
                                                                                        d="M8.33 0L4.38 0 4.38-31.25 12.12-31.25Q15.21-31.25 17.34-30.31 19.48-29.38 20.8-27.86 22.12-26.35 22.73-24.58 23.33-22.81 23.33-21.11L23.33-21.11Q23.33-19.44 22.74-17.67 22.15-15.9 20.83-14.38 19.51-12.85 17.36-11.91 15.21-10.97 12.12-10.97L12.12-10.97 8.33-10.97 8.33 0ZM8.33-27.71L8.33-14.51 11.91-14.51Q14.72-14.51 16.35-15.5 17.99-16.49 18.68-18 19.38-19.51 19.38-21.11L19.38-21.11Q19.38-22.64 18.7-24.17 18.02-25.69 16.41-26.7 14.79-27.71 11.91-27.71L11.91-27.71 8.33-27.71ZM37.84 0.42L37.84 0.42Q34.82 0.42 32.32-1.04 29.82-2.5 28.35-4.97 26.87-7.43 26.87-10.42L26.87-10.42Q26.87-13.44 28.35-15.89 29.82-18.33 32.32-19.79 34.82-21.25 37.84-21.25L37.84-21.25Q40.9-21.25 43.38-19.79 45.87-18.33 47.34-15.89 48.82-13.44 48.82-10.42L48.82-10.42Q48.82-7.43 47.34-4.97 45.87-2.5 43.38-1.04 40.9 0.42 37.84 0.42ZM37.84-3.13L37.84-3.13Q39.86-3.13 41.49-4.11 43.12-5.1 44.09-6.75 45.07-8.4 45.07-10.42L45.07-10.42Q45.07-12.43 44.09-14.08 43.12-15.73 41.49-16.72 39.86-17.71 37.84-17.71L37.84-17.71Q35.83-17.71 34.2-16.72 32.57-15.73 31.59-14.08 30.62-12.43 30.62-10.42L30.62-10.42Q30.62-8.4 31.59-6.75 32.57-5.1 34.2-4.11 35.83-3.13 37.84-3.13ZM59.4 0.42L59.4 0.42Q57.81 0.42 55.98-0.19 54.16-0.8 52.84-2.22L52.84-2.22 53.88-6.32Q54.86-4.69 56.38-3.73 57.91-2.78 59.65-2.78L59.65-2.78Q61.31-2.78 62.15-3.59 62.98-4.41 62.98-5.59L62.98-5.59Q62.98-6.94 62.1-7.57 61.21-8.19 60.52-8.44L60.52-8.44 57.7-9.51Q56.94-9.83 55.86-10.43 54.79-11.04 53.99-12.19 53.19-13.33 53.19-15.17L53.19-15.17Q53.19-16.84 53.99-18.23 54.79-19.62 56.25-20.43 57.7-21.25 59.68-21.25L59.68-21.25Q61.25-21.25 62.95-20.69 64.65-20.14 65.83-18.82L65.83-18.82 64.79-14.72Q63.95-16.25 62.53-17.15 61.11-18.06 59.58-18.06L59.58-18.06Q58.15-18.06 57.34-17.26 56.52-16.46 56.52-15.42L56.52-15.42Q56.52-14.58 57.08-13.92 57.63-13.26 58.75-12.85L58.75-12.85 61.56-11.77Q62.32-11.49 63.45-10.87 64.58-10.24 65.45-9.06 66.31-7.88 66.31-5.87L66.31-5.87Q66.31-3.06 64.35-1.32 62.39 0.42 59.4 0.42ZM77.91 0L74.16 0 74.16-17.71 69.44-17.71 69.44-20.83 74.26-20.83 74.26-27.78 77.81-27.78 77.81-20.83 82.98-20.83 82.98-17.71 77.91-17.71 77.91 0ZM91.1 0L87.35 0 87.35-33.33 91.1-33.33 91.1 0ZM100.96 10.42L96.9 10.42 103.67-3.06 94.85-20.83 99.08-20.83 103.53-11.81Q104.12-10.59 104.68-9.41 105.23-8.23 105.79-6.56L105.79-6.56Q106.38-8.23 106.91-9.43 107.45-10.63 108.08-11.81L108.08-11.81 112.59-20.83 116.58-20.83 100.96 10.42Z"
                                                                                        opacity="1"
                                                                                        transform="matrix(1,0,0,1,0,0)"
                                                                                        fill="#47285c"
                                                                                        class="wordmark-text-0"
                                                                                        data-fill-palette-color="primary"
                                                                                        id="text-0"></path>
                                                                                </svg></g>
                                                                        </svg></g>
                                                                </svg></g>
                                                        </svg></g>
                                                    <g transform="matrix(1,0,0,1,50.45922332307575,0)"><svg
                                                            viewBox="0 0 91.0815533538485 103.44475247524754"
                                                            height="103.44475247524754" width="91.0815533538485">
                                                            <g><svg xmlns="http://www.w3.org/2000/svg"
                                                                    xmlns:xlink="http://www.w3.org/1999/xlink"
                                                                    version="1.1" x="0" y="0"
                                                                    viewBox="4.6299986036262855 2.0003847563233697 38.741001428029655 43.99961524367663"
                                                                    enable-background="new 0 0 48 48"
                                                                    xml:space="preserve" height="103.44475247524754"
                                                                    width="91.0815533538485" class="icon-icon-0"
                                                                    data-fill-palette-color="accent" id="icon-0"></svg>
                                                            </g>
                                                        </svg></g>
                                                    <g></g>
                                                </svg></g>
                                        </svg></g>
                                </svg></g>
                        </svg></g>
                    <defs></defs>
                    <mask id="d8234cb8-8e5f-4eba-b9b3-b2b112137c09">
                        <g id="SvgjsG5623"><svg viewBox="0 0 320 360" height="360" width="320">
                                <g><svg></svg></g>
                                <g><svg viewBox="0 0 320 360" height="360" width="320">
                                        <g>
                                            <path transform="translate(-74.99272,-51.79039) scale(4.65793,4.65793)"
                                                d="M20.6 59.9l0.8 1-0.4-1.3c-0.1-0.6-0.8 0.1-0.4 0.3M21.5 59.3c0.3 0.5 0.6 1 0.6 1.5 0 0.7 0.6 1 1.1 1.2-0.7-0.8-1.1-3-1.7-2.7M59.9 16.9c1.7 0 3.3-0.2 5.1 0.2 4.4 1.1 8.1 3.3 10.6 6.4l7 11.2c0.3 2.8 0.9 5.9 0.8 9.3 0.7 0 0.6-1 1.4-1.2-0.8 2-1.2 4.5-1.4 7.4-0.5-1.6 0-4 0.1-5.3-0.7 1.1-1.1 0.3-1.1-0.2 0.1-0.8-0.3-0.7-0.6-1-1.1-1-1.8-2.1-2.6-3.8 0.5-1.3 0.6-3.2-1-4.2-0.5-0.3-1.1-0.8-1.4-1.6-0.4-1.1-1.1-2.4-0.9-4.1 0.1-0.5-1.5 1.1-2.4 0.4-3.9-2.7-7.8-5.8-12.5-8.4-2.5 0-4.3-0.9-5.2-2-0.8-1-0.2-2.3 1-2.4 0.7 0 1.5-0.2 2.1 0.2 0.1-0.4 0.5-0.9 1-0.9M50 14.6l0.2 0.1c1 0.2 1.5 1.6 2.6 1.1 0 0.7 0.1 1.4-0.1 1.9-0.3 0.8-1.2 0.8-1.9 0.8-6.7-0.4-10.6 2.4-14.7 4.8-1.1 0.7-2.3 1.2-3.2 2.1-4.3 4-9 7.7-10.1 15.1l-0.9 8.2c-0.1 0.9-1.1 1.8-0.9 2.9l0.7 4.9c-0.7-0.7-1.1 0.2-0.9 0.6 0.1 0.3 0.5 1.3 1.1 0.4 0.8 1.5 1.6 4.4 2.7 5.7 3.4 4 7.8 7.6 11.4 11.2 0.9-0.2 1.6-0.2 1.8-0.8 0.3 0.6-0.3 1.2-0.8 1.3 1.6 1 3.4 1.9 5.8 2.1 3.1 0.2 6 0.7 8.7 1.4 1.4-0.4 2.8-0.6 4.3-0.7 0.5 0 0.8-0.8 1.4-1l0.1-1c0.6 0.9 0.5-0.3 0.1-0.9 0.7 0.6 0.9 1.1 1.2 1.5 0-0.3 0.8-1.4 0.8-0.1l0.2-1.3c0.3-0.2 0.4 1.1 0.7 0.2 0.3-0.9 0.9-0.2 1.5-0.5-0.2 0.4-0.1 1.2 0.6 0.7l0.8-0.7c0.5 1.2 1.3 0.7 1.7 0.5 4.4-2.8 8.8-6.1 13-9.4l-0.1 1.3 0.5-1.6c0.5 0.5 0.9 0.1 1.1-0.2 0.6-1 1.4-2 2.7-2.9-1.6 4.3-3.5 7.7-5.9 10.5l-1 1.2c0 0.7-0.2 1.6-1 1.7-0.4 0.1-1.2-0.2-1.8 0.4-0.3 0.4 0.7 1.2-0.1 0.6-0.7-0.5-1.4 0-2.2 0.2-0.6 0.2 0.4 0.8 0.6 1.2 0.2 0.4 0.4 0.8 0.3 1.3l-1.1-1.2c-1.3 0.7-2.1 2-3.2 3-0.5 0.4-0.3 1.1-0.3 1.7-0.7 0-1.5-0.2-1.9 0.2-0.3 0.4-0.2 1-0.2 1.6-1-0.1-1.1-1.6-2-1.3-0.9 0.2-1.9 0.3-2.7 0.8 0.6 1.2-1 0.5-0.8 0.7-1.5-0.9-2.8-1.6-4.4-1-3.4-1.1-7.6-0.6-10.7-0.2 0-0.5 0.1-1-0.1-1.1-0.2 0.5-0.8 0.3-0.7 0.3-1.9-1.3-3.8-2.1-5.8-3.2-1.8 0.2-3.5-0.7-4-1.2-1.4-1.3-3-0.6-4.3-0.9-2.8-0.7-3.8-3.6-4.1-5.6-0.2-1-1-1.4-1.3-1.3-1.3-4.2-3.3-8-4.9-11.9-0.4-1-0.3-2-0.3-3.1 0.5 0.2 1 0.1 0.9-0.6-0.5-3.3-1.7-5.8-3-8.2 0.7-3.4 0.8-7.4 2.4-10.4 1.4-2.7 4-4.1 5.8-6.4 0.6-0.8 0.6-1.9 1.2-2.6 2-2 4-4.1 6.2-5.9 1-0.8 2.2 0 3.7-0.3 0.5-1.8 2.5-3.4 4.4-2.9 0.8 0.2 2.4-1.9 2.9-2.1 0.8-0.3 0.4 0.8 0.4 1.5 1.9-1.5 4.5-2.3 6.9-3.2"
                                                fill="black" fill-rule="nonzero" stroke="none" stroke-width="1"
                                                stroke-linecap="butt" stroke-linejoin="miter" stroke-miterlimit="10"
                                                stroke-dasharray="" stroke-dashoffset="0" font-family="none"
                                                font-weight="none" font-size="none" text-anchor="none"
                                                style="mix-blend-mode: normal"></path>
                                        </g>
                                        <g transform="matrix(1,0,0,1,68.67718220281036,90)"><svg
                                                viewBox="0 0 182.64563559437929 180" height="180"
                                                width="182.64563559437929">
                                                <g><svg viewBox="0 0 182.64563559437929 180" height="180"
                                                        width="182.64563559437929">
                                                        <g><svg viewBox="0 0 192 189.21886574257428" height="180"
                                                                width="182.64563559437929">
                                                                <g transform="matrix(1,0,0,1,0,114.36738059405943)"><svg
                                                                        viewBox="0 0 192 74.85148514851485"
                                                                        height="74.85148514851485" width="192">
                                                                        <g id="SvgjsG5622"><svg
                                                                                viewBox="0 0 192 74.85148514851485"
                                                                                height="74.85148514851485" width="192"
                                                                                id="SvgjsSvg5621">
                                                                                <g><svg viewBox="0 0 192 74.85148514851485"
                                                                                        height="74.85148514851485"
                                                                                        width="192">
                                                                                        <g
                                                                                            transform="matrix(1,0,0,1,0,0)">
                                                                                            <svg width="192"
                                                                                                viewBox="4.38 -33.33 112.2 43.75"
                                                                                                height="74.85148514851485"
                                                                                                data-palette-color="#47285c">
                                                                                                <path
                                                                                                    d="M8.33 0L4.38 0 4.38-31.25 12.12-31.25Q15.21-31.25 17.34-30.31 19.48-29.38 20.8-27.86 22.12-26.35 22.73-24.58 23.33-22.81 23.33-21.11L23.33-21.11Q23.33-19.44 22.74-17.67 22.15-15.9 20.83-14.38 19.51-12.85 17.36-11.91 15.21-10.97 12.12-10.97L12.12-10.97 8.33-10.97 8.33 0ZM8.33-27.71L8.33-14.51 11.91-14.51Q14.72-14.51 16.35-15.5 17.99-16.49 18.68-18 19.38-19.51 19.38-21.11L19.38-21.11Q19.38-22.64 18.7-24.17 18.02-25.69 16.41-26.7 14.79-27.71 11.91-27.71L11.91-27.71 8.33-27.71ZM37.84 0.42L37.84 0.42Q34.82 0.42 32.32-1.04 29.82-2.5 28.35-4.97 26.87-7.43 26.87-10.42L26.87-10.42Q26.87-13.44 28.35-15.89 29.82-18.33 32.32-19.79 34.82-21.25 37.84-21.25L37.84-21.25Q40.9-21.25 43.38-19.79 45.87-18.33 47.34-15.89 48.82-13.44 48.82-10.42L48.82-10.42Q48.82-7.43 47.34-4.97 45.87-2.5 43.38-1.04 40.9 0.42 37.84 0.42ZM37.84-3.13L37.84-3.13Q39.86-3.13 41.49-4.11 43.12-5.1 44.09-6.75 45.07-8.4 45.07-10.42L45.07-10.42Q45.07-12.43 44.09-14.08 43.12-15.73 41.49-16.72 39.86-17.71 37.84-17.71L37.84-17.71Q35.83-17.71 34.2-16.72 32.57-15.73 31.59-14.08 30.62-12.43 30.62-10.42L30.62-10.42Q30.62-8.4 31.59-6.75 32.57-5.1 34.2-4.11 35.83-3.13 37.84-3.13ZM59.4 0.42L59.4 0.42Q57.81 0.42 55.98-0.19 54.16-0.8 52.84-2.22L52.84-2.22 53.88-6.32Q54.86-4.69 56.38-3.73 57.91-2.78 59.65-2.78L59.65-2.78Q61.31-2.78 62.15-3.59 62.98-4.41 62.98-5.59L62.98-5.59Q62.98-6.94 62.1-7.57 61.21-8.19 60.52-8.44L60.52-8.44 57.7-9.51Q56.94-9.83 55.86-10.43 54.79-11.04 53.99-12.19 53.19-13.33 53.19-15.17L53.19-15.17Q53.19-16.84 53.99-18.23 54.79-19.62 56.25-20.43 57.7-21.25 59.68-21.25L59.68-21.25Q61.25-21.25 62.95-20.69 64.65-20.14 65.83-18.82L65.83-18.82 64.79-14.72Q63.95-16.25 62.53-17.15 61.11-18.06 59.58-18.06L59.58-18.06Q58.15-18.06 57.34-17.26 56.52-16.46 56.52-15.42L56.52-15.42Q56.52-14.58 57.08-13.92 57.63-13.26 58.75-12.85L58.75-12.85 61.56-11.77Q62.32-11.49 63.45-10.87 64.58-10.24 65.45-9.06 66.31-7.88 66.31-5.87L66.31-5.87Q66.31-3.06 64.35-1.32 62.39 0.42 59.4 0.42ZM77.91 0L74.16 0 74.16-17.71 69.44-17.71 69.44-20.83 74.26-20.83 74.26-27.78 77.81-27.78 77.81-20.83 82.98-20.83 82.98-17.71 77.91-17.71 77.91 0ZM91.1 0L87.35 0 87.35-33.33 91.1-33.33 91.1 0ZM100.96 10.42L96.9 10.42 103.67-3.06 94.85-20.83 99.08-20.83 103.53-11.81Q104.12-10.59 104.68-9.41 105.23-8.23 105.79-6.56L105.79-6.56Q106.38-8.23 106.91-9.43 107.45-10.63 108.08-11.81L108.08-11.81 112.59-20.83 116.58-20.83 100.96 10.42Z"
                                                                                                    opacity="1"
                                                                                                    transform="matrix(1,0,0,1,0,0)"
                                                                                                    fill="black"
                                                                                                    class="wordmark-text-0"
                                                                                                    id="SvgjsPath5620">
                                                                                                </path>
                                                                                            </svg>
                                                                                        </g>
                                                                                    </svg></g>
                                                                            </svg></g>
                                                                    </svg></g>
                                                                <g transform="matrix(1,0,0,1,50.45922332307575,0)"><svg
                                                                        viewBox="0 0 91.0815533538485 103.44475247524754"
                                                                        height="103.44475247524754"
                                                                        width="91.0815533538485">
                                                                        <g><svg xmlns="http://www.w3.org/2000/svg"
                                                                                xmlns:xlink="http://www.w3.org/1999/xlink"
                                                                                version="1.1" x="0" y="0"
                                                                                viewBox="4.6299986036262855 2.0003847563233697 38.741001428029655 43.99961524367663"
                                                                                enable-background="new 0 0 48 48"
                                                                                xml:space="preserve"
                                                                                height="103.44475247524754"
                                                                                width="91.0815533538485"
                                                                                class="icon-icon-0"
                                                                                data-fill-palette-color="accent"
                                                                                id="SvgjsSvg5619">
                                                                                <path
                                                                                    d="M38.047 8.691V2.501A0.496 0.496 0 0 0 37.459 2.009 19.7 19.7 0 0 0 24 11.297C21.06 6.397 16.2 3.03 10.54 2.009A0.5 0.5 0 0 0 9.95 2.5V8.705A16 16 0 0 0 4.845 11.032 0.5 0.5 0 0 0 4.63 11.443V44.638A0.5 0.5 0 0 0 5.415 45.05C10.979 41.199 18.489 41.541 23.679 45.882L23.696 45.892C23.705 45.9 23.713 45.909 23.722 45.914 23.736 45.923 23.753 45.925 23.768 45.933A0.4 0.4 0 0 0 23.88 45.979C23.891 45.982 23.901 45.99 23.912 45.992L24 46 24.074 45.995C24.104 45.991 24.133 45.974 24.162 45.965 24.183 45.958 24.203 45.954 24.222 45.944 24.229 45.941 24.237 45.941 24.243 45.937A0.5 0.5 0 0 0 24.325 45.88C29.514 41.542 37.022 41.199 42.585 45.048A0.5 0.5 0 0 0 43.371 44.638V11.443A0.5 0.5 0 0 0 43.156 11.032 16 16 0 0 0 38.047 8.691M10.95 3.108A18.71 18.71 0 0 1 23.499 12.431V43.701A19.7 19.7 0 0 0 10.95 35.283zM5.629 43.719V11.707A15 15 0 0 1 9.95 9.742V35.696A0.5 0.5 0 0 0 10.361 36.188 18.7 18.7 0 0 1 22.228 43.634C17.156 40.622 10.736 40.609 5.629 43.719M24.5 12.432A18.7 18.7 0 0 1 37.047 3.109V35.283A19.7 19.7 0 0 0 24.5 43.7zM42.369 43.719A16.07 16.07 0 0 0 34.006 41.381C31.141 41.381 28.28 42.141 25.756 43.643A18.7 18.7 0 0 1 37.637 36.189 0.5 0.5 0 0 0 38.047 35.697V9.726A15.1 15.1 0 0 1 42.369 11.707z"
                                                                                    fill="white"></path>
                                                                                <path
                                                                                    d="M13.642 13.76A18.7 18.7 0 0 1 20.279 18.023 0.5 0.5 0 1 0 20.984 17.316 19.7 19.7 0 0 0 13.993 12.826 0.498 0.498 0 1 0 13.642 13.76"
                                                                                    fill="white"></path>
                                                                                <path
                                                                                    d="M13.642 20.495A18.7 18.7 0 0 1 20.279 24.757 0.496 0.496 0 0 0 20.986 24.756 0.5 0.5 0 0 0 20.984 24.049 19.7 19.7 0 0 0 13.993 19.559 0.5 0.5 0 1 0 13.642 20.495"
                                                                                    fill="white"></path>
                                                                                <path
                                                                                    d="M20.983 30.783A19.7 19.7 0 0 0 13.992 26.293 0.5 0.5 0 1 0 13.64 27.23 18.7 18.7 0 0 1 20.277 31.493 0.496 0.496 0 0 0 20.984 31.492 0.5 0.5 0 0 0 20.983 30.783"
                                                                                    fill="white"></path>
                                                                                <path
                                                                                    d="M27.366 18.168A0.5 0.5 0 0 0 27.719 18.022 18.7 18.7 0 0 1 34.356 13.759C34.616 13.662 34.747 13.373 34.649 13.115S34.26 12.726 34.004 12.823A19.7 19.7 0 0 0 27.014 17.313 0.5 0.5 0 0 0 27.366 18.168"
                                                                                    fill="white"></path>
                                                                                <path
                                                                                    d="M27.366 24.903A0.5 0.5 0 0 0 27.719 24.757 18.7 18.7 0 0 1 34.356 20.495 0.5 0.5 0 1 0 34.004 19.558 19.7 19.7 0 0 0 27.014 24.048 0.5 0.5 0 0 0 27.366 24.903"
                                                                                    fill="white"></path>
                                                                                <path
                                                                                    d="M27.366 31.637A0.5 0.5 0 0 0 27.719 31.491 18.8 18.8 0 0 1 30.811 29.008 0.5 0.5 0 1 0 30.272 28.167 20 20 0 0 0 27.014 30.783 0.501 0.501 0 0 0 27.366 31.637"
                                                                                    fill="white"></path>
                                                                            </svg></g>
                                                                    </svg></g>
                                                                <g></g>
                                                            </svg></g>
                                                    </svg></g>
                                            </svg></g>
                                    </svg></g>
                                <defs>
                                    <mask></mask>
                                </defs>
                            </svg>
                            <rect width="320" height="360" fill="black" stroke="none" visibility="hidden"></rect>
                        </g>
                    </mask>
                    <linearGradient x1="0" x2="1" y1="0.548" y2="0.55" id="91b5818a-3c32-408d-80ff-c8574048ddbc">
                        <stop stop-color="#ff6cab" offset="0"></stop>
                        <stop stop-color="#7366ff" offset="1"></stop>
                    </linearGradient>
                    <rect width="320.000047" height="360" fill="url(#91b5818a-3c32-408d-80ff-c8574048ddbc)"
                        mask="url(#d8234cb8-8e5f-4eba-b9b3-b2b112137c09)" data-fill-palette-color="accent"></rect>
                    <mask id="8e9141dc-c45f-48cb-b0b6-705824cdf0be">
                        <g id="SvgjsG5633"><svg viewBox="0 0 320 360" height="360" width="320">
                                <g><svg></svg></g>
                                <g><svg viewBox="0 0 320 360" height="360" width="320">
                                        <g>
                                            <path transform="translate(-74.99272,-51.79039) scale(4.65793,4.65793)"
                                                d="M20.6 59.9l0.8 1-0.4-1.3c-0.1-0.6-0.8 0.1-0.4 0.3M21.5 59.3c0.3 0.5 0.6 1 0.6 1.5 0 0.7 0.6 1 1.1 1.2-0.7-0.8-1.1-3-1.7-2.7M59.9 16.9c1.7 0 3.3-0.2 5.1 0.2 4.4 1.1 8.1 3.3 10.6 6.4l7 11.2c0.3 2.8 0.9 5.9 0.8 9.3 0.7 0 0.6-1 1.4-1.2-0.8 2-1.2 4.5-1.4 7.4-0.5-1.6 0-4 0.1-5.3-0.7 1.1-1.1 0.3-1.1-0.2 0.1-0.8-0.3-0.7-0.6-1-1.1-1-1.8-2.1-2.6-3.8 0.5-1.3 0.6-3.2-1-4.2-0.5-0.3-1.1-0.8-1.4-1.6-0.4-1.1-1.1-2.4-0.9-4.1 0.1-0.5-1.5 1.1-2.4 0.4-3.9-2.7-7.8-5.8-12.5-8.4-2.5 0-4.3-0.9-5.2-2-0.8-1-0.2-2.3 1-2.4 0.7 0 1.5-0.2 2.1 0.2 0.1-0.4 0.5-0.9 1-0.9M50 14.6l0.2 0.1c1 0.2 1.5 1.6 2.6 1.1 0 0.7 0.1 1.4-0.1 1.9-0.3 0.8-1.2 0.8-1.9 0.8-6.7-0.4-10.6 2.4-14.7 4.8-1.1 0.7-2.3 1.2-3.2 2.1-4.3 4-9 7.7-10.1 15.1l-0.9 8.2c-0.1 0.9-1.1 1.8-0.9 2.9l0.7 4.9c-0.7-0.7-1.1 0.2-0.9 0.6 0.1 0.3 0.5 1.3 1.1 0.4 0.8 1.5 1.6 4.4 2.7 5.7 3.4 4 7.8 7.6 11.4 11.2 0.9-0.2 1.6-0.2 1.8-0.8 0.3 0.6-0.3 1.2-0.8 1.3 1.6 1 3.4 1.9 5.8 2.1 3.1 0.2 6 0.7 8.7 1.4 1.4-0.4 2.8-0.6 4.3-0.7 0.5 0 0.8-0.8 1.4-1l0.1-1c0.6 0.9 0.5-0.3 0.1-0.9 0.7 0.6 0.9 1.1 1.2 1.5 0-0.3 0.8-1.4 0.8-0.1l0.2-1.3c0.3-0.2 0.4 1.1 0.7 0.2 0.3-0.9 0.9-0.2 1.5-0.5-0.2 0.4-0.1 1.2 0.6 0.7l0.8-0.7c0.5 1.2 1.3 0.7 1.7 0.5 4.4-2.8 8.8-6.1 13-9.4l-0.1 1.3 0.5-1.6c0.5 0.5 0.9 0.1 1.1-0.2 0.6-1 1.4-2 2.7-2.9-1.6 4.3-3.5 7.7-5.9 10.5l-1 1.2c0 0.7-0.2 1.6-1 1.7-0.4 0.1-1.2-0.2-1.8 0.4-0.3 0.4 0.7 1.2-0.1 0.6-0.7-0.5-1.4 0-2.2 0.2-0.6 0.2 0.4 0.8 0.6 1.2 0.2 0.4 0.4 0.8 0.3 1.3l-1.1-1.2c-1.3 0.7-2.1 2-3.2 3-0.5 0.4-0.3 1.1-0.3 1.7-0.7 0-1.5-0.2-1.9 0.2-0.3 0.4-0.2 1-0.2 1.6-1-0.1-1.1-1.6-2-1.3-0.9 0.2-1.9 0.3-2.7 0.8 0.6 1.2-1 0.5-0.8 0.7-1.5-0.9-2.8-1.6-4.4-1-3.4-1.1-7.6-0.6-10.7-0.2 0-0.5 0.1-1-0.1-1.1-0.2 0.5-0.8 0.3-0.7 0.3-1.9-1.3-3.8-2.1-5.8-3.2-1.8 0.2-3.5-0.7-4-1.2-1.4-1.3-3-0.6-4.3-0.9-2.8-0.7-3.8-3.6-4.1-5.6-0.2-1-1-1.4-1.3-1.3-1.3-4.2-3.3-8-4.9-11.9-0.4-1-0.3-2-0.3-3.1 0.5 0.2 1 0.1 0.9-0.6-0.5-3.3-1.7-5.8-3-8.2 0.7-3.4 0.8-7.4 2.4-10.4 1.4-2.7 4-4.1 5.8-6.4 0.6-0.8 0.6-1.9 1.2-2.6 2-2 4-4.1 6.2-5.9 1-0.8 2.2 0 3.7-0.3 0.5-1.8 2.5-3.4 4.4-2.9 0.8 0.2 2.4-1.9 2.9-2.1 0.8-0.3 0.4 0.8 0.4 1.5 1.9-1.5 4.5-2.3 6.9-3.2"
                                                fill="white" fill-rule="nonzero" stroke="none" stroke-width="1"
                                                stroke-linecap="butt" stroke-linejoin="miter" stroke-miterlimit="10"
                                                stroke-dasharray="" stroke-dashoffset="0" font-family="none"
                                                font-weight="none" font-size="none" text-anchor="none"
                                                style="mix-blend-mode: normal"></path>
                                        </g>
                                        <g transform="matrix(1,0,0,1,68.67718220281036,90)"><svg
                                                viewBox="0 0 182.64563559437929 180" height="180"
                                                width="182.64563559437929">
                                                <g><svg viewBox="0 0 182.64563559437929 180" height="180"
                                                        width="182.64563559437929">
                                                        <g><svg viewBox="0 0 192 189.21886574257428" height="180"
                                                                width="182.64563559437929">
                                                                <g transform="matrix(1,0,0,1,0,114.36738059405943)"><svg
                                                                        viewBox="0 0 192 74.85148514851485"
                                                                        height="74.85148514851485" width="192">
                                                                        <g id="SvgjsG5632"><svg
                                                                                viewBox="0 0 192 74.85148514851485"
                                                                                height="74.85148514851485" width="192"
                                                                                id="SvgjsSvg5631">
                                                                                <g><svg viewBox="0 0 192 74.85148514851485"
                                                                                        height="74.85148514851485"
                                                                                        width="192">
                                                                                        <g
                                                                                            transform="matrix(1,0,0,1,0,0)">
                                                                                            <svg width="192"
                                                                                                viewBox="4.38 -33.33 112.2 43.75"
                                                                                                height="74.85148514851485"
                                                                                                data-palette-color="#47285c">
                                                                                                <path
                                                                                                    d="M8.33 0L4.38 0 4.38-31.25 12.12-31.25Q15.21-31.25 17.34-30.31 19.48-29.38 20.8-27.86 22.12-26.35 22.73-24.58 23.33-22.81 23.33-21.11L23.33-21.11Q23.33-19.44 22.74-17.67 22.15-15.9 20.83-14.38 19.51-12.85 17.36-11.91 15.21-10.97 12.12-10.97L12.12-10.97 8.33-10.97 8.33 0ZM8.33-27.71L8.33-14.51 11.91-14.51Q14.72-14.51 16.35-15.5 17.99-16.49 18.68-18 19.38-19.51 19.38-21.11L19.38-21.11Q19.38-22.64 18.7-24.17 18.02-25.69 16.41-26.7 14.79-27.71 11.91-27.71L11.91-27.71 8.33-27.71ZM37.84 0.42L37.84 0.42Q34.82 0.42 32.32-1.04 29.82-2.5 28.35-4.97 26.87-7.43 26.87-10.42L26.87-10.42Q26.87-13.44 28.35-15.89 29.82-18.33 32.32-19.79 34.82-21.25 37.84-21.25L37.84-21.25Q40.9-21.25 43.38-19.79 45.87-18.33 47.34-15.89 48.82-13.44 48.82-10.42L48.82-10.42Q48.82-7.43 47.34-4.97 45.87-2.5 43.38-1.04 40.9 0.42 37.84 0.42ZM37.84-3.13L37.84-3.13Q39.86-3.13 41.49-4.11 43.12-5.1 44.09-6.75 45.07-8.4 45.07-10.42L45.07-10.42Q45.07-12.43 44.09-14.08 43.12-15.73 41.49-16.72 39.86-17.71 37.84-17.71L37.84-17.71Q35.83-17.71 34.2-16.72 32.57-15.73 31.59-14.08 30.62-12.43 30.62-10.42L30.62-10.42Q30.62-8.4 31.59-6.75 32.57-5.1 34.2-4.11 35.83-3.13 37.84-3.13ZM59.4 0.42L59.4 0.42Q57.81 0.42 55.98-0.19 54.16-0.8 52.84-2.22L52.84-2.22 53.88-6.32Q54.86-4.69 56.38-3.73 57.91-2.78 59.65-2.78L59.65-2.78Q61.31-2.78 62.15-3.59 62.98-4.41 62.98-5.59L62.98-5.59Q62.98-6.94 62.1-7.57 61.21-8.19 60.52-8.44L60.52-8.44 57.7-9.51Q56.94-9.83 55.86-10.43 54.79-11.04 53.99-12.19 53.19-13.33 53.19-15.17L53.19-15.17Q53.19-16.84 53.99-18.23 54.79-19.62 56.25-20.43 57.7-21.25 59.68-21.25L59.68-21.25Q61.25-21.25 62.95-20.69 64.65-20.14 65.83-18.82L65.83-18.82 64.79-14.72Q63.95-16.25 62.53-17.15 61.11-18.06 59.58-18.06L59.58-18.06Q58.15-18.06 57.34-17.26 56.52-16.46 56.52-15.42L56.52-15.42Q56.52-14.58 57.08-13.92 57.63-13.26 58.75-12.85L58.75-12.85 61.56-11.77Q62.32-11.49 63.45-10.87 64.58-10.24 65.45-9.06 66.31-7.88 66.31-5.87L66.31-5.87Q66.31-3.06 64.35-1.32 62.39 0.42 59.4 0.42ZM77.91 0L74.16 0 74.16-17.71 69.44-17.71 69.44-20.83 74.26-20.83 74.26-27.78 77.81-27.78 77.81-20.83 82.98-20.83 82.98-17.71 77.91-17.71 77.91 0ZM91.1 0L87.35 0 87.35-33.33 91.1-33.33 91.1 0ZM100.96 10.42L96.9 10.42 103.67-3.06 94.85-20.83 99.08-20.83 103.53-11.81Q104.12-10.59 104.68-9.41 105.23-8.23 105.79-6.56L105.79-6.56Q106.38-8.23 106.91-9.43 107.45-10.63 108.08-11.81L108.08-11.81 112.59-20.83 116.58-20.83 100.96 10.42Z"
                                                                                                    opacity="1"
                                                                                                    transform="matrix(1,0,0,1,0,0)"
                                                                                                    fill="black"
                                                                                                    class="wordmark-text-0"
                                                                                                    id="SvgjsPath5630">
                                                                                                </path>
                                                                                            </svg>
                                                                                        </g>
                                                                                    </svg></g>
                                                                            </svg></g>
                                                                    </svg></g>
                                                                <g transform="matrix(1,0,0,1,50.45922332307575,0)"><svg
                                                                        viewBox="0 0 91.0815533538485 103.44475247524754"
                                                                        height="103.44475247524754"
                                                                        width="91.0815533538485">
                                                                        <g><svg xmlns="http://www.w3.org/2000/svg"
                                                                                xmlns:xlink="http://www.w3.org/1999/xlink"
                                                                                version="1.1" x="0" y="0"
                                                                                viewBox="4.6299986036262855 2.0003847563233697 38.741001428029655 43.99961524367663"
                                                                                enable-background="new 0 0 48 48"
                                                                                xml:space="preserve"
                                                                                height="103.44475247524754"
                                                                                width="91.0815533538485"
                                                                                class="icon-icon-0"
                                                                                data-fill-palette-color="accent"
                                                                                id="SvgjsSvg5629"></svg></g>
                                                                    </svg></g>
                                                                <g></g>
                                                            </svg></g>
                                                    </svg></g>
                                            </svg></g>
                                    </svg></g>
                                <defs>
                                    <mask></mask>
                                </defs>
                                <mask>
                                    <g id="SvgjsG5628"><svg viewBox="0 0 320 360" height="360" width="320">
                                            <g><svg></svg></g>
                                            <g><svg viewBox="0 0 320 360" height="360" width="320">
                                                    <g>
                                                        <path
                                                            transform="translate(-74.99272,-51.79039) scale(4.65793,4.65793)"
                                                            d="M20.6 59.9l0.8 1-0.4-1.3c-0.1-0.6-0.8 0.1-0.4 0.3M21.5 59.3c0.3 0.5 0.6 1 0.6 1.5 0 0.7 0.6 1 1.1 1.2-0.7-0.8-1.1-3-1.7-2.7M59.9 16.9c1.7 0 3.3-0.2 5.1 0.2 4.4 1.1 8.1 3.3 10.6 6.4l7 11.2c0.3 2.8 0.9 5.9 0.8 9.3 0.7 0 0.6-1 1.4-1.2-0.8 2-1.2 4.5-1.4 7.4-0.5-1.6 0-4 0.1-5.3-0.7 1.1-1.1 0.3-1.1-0.2 0.1-0.8-0.3-0.7-0.6-1-1.1-1-1.8-2.1-2.6-3.8 0.5-1.3 0.6-3.2-1-4.2-0.5-0.3-1.1-0.8-1.4-1.6-0.4-1.1-1.1-2.4-0.9-4.1 0.1-0.5-1.5 1.1-2.4 0.4-3.9-2.7-7.8-5.8-12.5-8.4-2.5 0-4.3-0.9-5.2-2-0.8-1-0.2-2.3 1-2.4 0.7 0 1.5-0.2 2.1 0.2 0.1-0.4 0.5-0.9 1-0.9M50 14.6l0.2 0.1c1 0.2 1.5 1.6 2.6 1.1 0 0.7 0.1 1.4-0.1 1.9-0.3 0.8-1.2 0.8-1.9 0.8-6.7-0.4-10.6 2.4-14.7 4.8-1.1 0.7-2.3 1.2-3.2 2.1-4.3 4-9 7.7-10.1 15.1l-0.9 8.2c-0.1 0.9-1.1 1.8-0.9 2.9l0.7 4.9c-0.7-0.7-1.1 0.2-0.9 0.6 0.1 0.3 0.5 1.3 1.1 0.4 0.8 1.5 1.6 4.4 2.7 5.7 3.4 4 7.8 7.6 11.4 11.2 0.9-0.2 1.6-0.2 1.8-0.8 0.3 0.6-0.3 1.2-0.8 1.3 1.6 1 3.4 1.9 5.8 2.1 3.1 0.2 6 0.7 8.7 1.4 1.4-0.4 2.8-0.6 4.3-0.7 0.5 0 0.8-0.8 1.4-1l0.1-1c0.6 0.9 0.5-0.3 0.1-0.9 0.7 0.6 0.9 1.1 1.2 1.5 0-0.3 0.8-1.4 0.8-0.1l0.2-1.3c0.3-0.2 0.4 1.1 0.7 0.2 0.3-0.9 0.9-0.2 1.5-0.5-0.2 0.4-0.1 1.2 0.6 0.7l0.8-0.7c0.5 1.2 1.3 0.7 1.7 0.5 4.4-2.8 8.8-6.1 13-9.4l-0.1 1.3 0.5-1.6c0.5 0.5 0.9 0.1 1.1-0.2 0.6-1 1.4-2 2.7-2.9-1.6 4.3-3.5 7.7-5.9 10.5l-1 1.2c0 0.7-0.2 1.6-1 1.7-0.4 0.1-1.2-0.2-1.8 0.4-0.3 0.4 0.7 1.2-0.1 0.6-0.7-0.5-1.4 0-2.2 0.2-0.6 0.2 0.4 0.8 0.6 1.2 0.2 0.4 0.4 0.8 0.3 1.3l-1.1-1.2c-1.3 0.7-2.1 2-3.2 3-0.5 0.4-0.3 1.1-0.3 1.7-0.7 0-1.5-0.2-1.9 0.2-0.3 0.4-0.2 1-0.2 1.6-1-0.1-1.1-1.6-2-1.3-0.9 0.2-1.9 0.3-2.7 0.8 0.6 1.2-1 0.5-0.8 0.7-1.5-0.9-2.8-1.6-4.4-1-3.4-1.1-7.6-0.6-10.7-0.2 0-0.5 0.1-1-0.1-1.1-0.2 0.5-0.8 0.3-0.7 0.3-1.9-1.3-3.8-2.1-5.8-3.2-1.8 0.2-3.5-0.7-4-1.2-1.4-1.3-3-0.6-4.3-0.9-2.8-0.7-3.8-3.6-4.1-5.6-0.2-1-1-1.4-1.3-1.3-1.3-4.2-3.3-8-4.9-11.9-0.4-1-0.3-2-0.3-3.1 0.5 0.2 1 0.1 0.9-0.6-0.5-3.3-1.7-5.8-3-8.2 0.7-3.4 0.8-7.4 2.4-10.4 1.4-2.7 4-4.1 5.8-6.4 0.6-0.8 0.6-1.9 1.2-2.6 2-2 4-4.1 6.2-5.9 1-0.8 2.2 0 3.7-0.3 0.5-1.8 2.5-3.4 4.4-2.9 0.8 0.2 2.4-1.9 2.9-2.1 0.8-0.3 0.4 0.8 0.4 1.5 1.9-1.5 4.5-2.3 6.9-3.2"
                                                            fill="black" fill-rule="nonzero" stroke="none"
                                                            stroke-width="1" stroke-linecap="butt"
                                                            stroke-linejoin="miter" stroke-miterlimit="10"
                                                            stroke-dasharray="" stroke-dashoffset="0" font-family="none"
                                                            font-weight="none" font-size="none" text-anchor="none"
                                                            style="mix-blend-mode: normal"></path>
                                                    </g>
                                                    <g transform="matrix(1,0,0,1,68.67718220281036,90)"><svg
                                                            viewBox="0 0 182.64563559437929 180" height="180"
                                                            width="182.64563559437929">
                                                            <g><svg viewBox="0 0 182.64563559437929 180" height="180"
                                                                    width="182.64563559437929">
                                                                    <g><svg viewBox="0 0 192 189.21886574257428"
                                                                            height="180" width="182.64563559437929">
                                                                            <g
                                                                                transform="matrix(1,0,0,1,0,114.36738059405943)">
                                                                                <svg viewBox="0 0 192 74.85148514851485"
                                                                                    height="74.85148514851485"
                                                                                    width="192">
                                                                                    <g id="SvgjsG5627"><svg
                                                                                            viewBox="0 0 192 74.85148514851485"
                                                                                            height="74.85148514851485"
                                                                                            width="192"
                                                                                            id="SvgjsSvg5626">
                                                                                            <g><svg viewBox="0 0 192 74.85148514851485"
                                                                                                    height="74.85148514851485"
                                                                                                    width="192">
                                                                                                    <g
                                                                                                        transform="matrix(1,0,0,1,0,0)">
                                                                                                        <svg width="192"
                                                                                                            viewBox="4.38 -33.33 112.2 43.75"
                                                                                                            height="74.85148514851485"
                                                                                                            data-palette-color="#47285c">
                                                                                                            <path
                                                                                                                d="M8.33 0L4.38 0 4.38-31.25 12.12-31.25Q15.21-31.25 17.34-30.31 19.48-29.38 20.8-27.86 22.12-26.35 22.73-24.58 23.33-22.81 23.33-21.11L23.33-21.11Q23.33-19.44 22.74-17.67 22.15-15.9 20.83-14.38 19.51-12.85 17.36-11.91 15.21-10.97 12.12-10.97L12.12-10.97 8.33-10.97 8.33 0ZM8.33-27.71L8.33-14.51 11.91-14.51Q14.72-14.51 16.35-15.5 17.99-16.49 18.68-18 19.38-19.51 19.38-21.11L19.38-21.11Q19.38-22.64 18.7-24.17 18.02-25.69 16.41-26.7 14.79-27.71 11.91-27.71L11.91-27.71 8.33-27.71ZM37.84 0.42L37.84 0.42Q34.82 0.42 32.32-1.04 29.82-2.5 28.35-4.97 26.87-7.43 26.87-10.42L26.87-10.42Q26.87-13.44 28.35-15.89 29.82-18.33 32.32-19.79 34.82-21.25 37.84-21.25L37.84-21.25Q40.9-21.25 43.38-19.79 45.87-18.33 47.34-15.89 48.82-13.44 48.82-10.42L48.82-10.42Q48.82-7.43 47.34-4.97 45.87-2.5 43.38-1.04 40.9 0.42 37.84 0.42ZM37.84-3.13L37.84-3.13Q39.86-3.13 41.49-4.11 43.12-5.1 44.09-6.75 45.07-8.4 45.07-10.42L45.07-10.42Q45.07-12.43 44.09-14.08 43.12-15.73 41.49-16.72 39.86-17.71 37.84-17.71L37.84-17.71Q35.83-17.71 34.2-16.72 32.57-15.73 31.59-14.08 30.62-12.43 30.62-10.42L30.62-10.42Q30.62-8.4 31.59-6.75 32.57-5.1 34.2-4.11 35.83-3.13 37.84-3.13ZM59.4 0.42L59.4 0.42Q57.81 0.42 55.98-0.19 54.16-0.8 52.84-2.22L52.84-2.22 53.88-6.32Q54.86-4.69 56.38-3.73 57.91-2.78 59.65-2.78L59.65-2.78Q61.31-2.78 62.15-3.59 62.98-4.41 62.98-5.59L62.98-5.59Q62.98-6.94 62.1-7.57 61.21-8.19 60.52-8.44L60.52-8.44 57.7-9.51Q56.94-9.83 55.86-10.43 54.79-11.04 53.99-12.19 53.19-13.33 53.19-15.17L53.19-15.17Q53.19-16.84 53.99-18.23 54.79-19.62 56.25-20.43 57.7-21.25 59.68-21.25L59.68-21.25Q61.25-21.25 62.95-20.69 64.65-20.14 65.83-18.82L65.83-18.82 64.79-14.72Q63.95-16.25 62.53-17.15 61.11-18.06 59.58-18.06L59.58-18.06Q58.15-18.06 57.34-17.26 56.52-16.46 56.52-15.42L56.52-15.42Q56.52-14.58 57.08-13.92 57.63-13.26 58.75-12.85L58.75-12.85 61.56-11.77Q62.32-11.49 63.45-10.87 64.58-10.24 65.45-9.06 66.31-7.88 66.31-5.87L66.31-5.87Q66.31-3.06 64.35-1.32 62.39 0.42 59.4 0.42ZM77.91 0L74.16 0 74.16-17.71 69.44-17.71 69.44-20.83 74.26-20.83 74.26-27.78 77.81-27.78 77.81-20.83 82.98-20.83 82.98-17.71 77.91-17.71 77.91 0ZM91.1 0L87.35 0 87.35-33.33 91.1-33.33 91.1 0ZM100.96 10.42L96.9 10.42 103.67-3.06 94.85-20.83 99.08-20.83 103.53-11.81Q104.12-10.59 104.68-9.41 105.23-8.23 105.79-6.56L105.79-6.56Q106.38-8.23 106.91-9.43 107.45-10.63 108.08-11.81L108.08-11.81 112.59-20.83 116.58-20.83 100.96 10.42Z"
                                                                                                                opacity="1"
                                                                                                                transform="matrix(1,0,0,1,0,0)"
                                                                                                                fill="black"
                                                                                                                class="wordmark-text-0"
                                                                                                                id="SvgjsPath5625">
                                                                                                            </path>
                                                                                                        </svg>
                                                                                                    </g>
                                                                                                </svg></g>
                                                                                        </svg></g>
                                                                                </svg>
                                                                            </g>
                                                                            <g
                                                                                transform="matrix(1,0,0,1,50.45922332307575,0)">
                                                                                <svg viewBox="0 0 91.0815533538485 103.44475247524754"
                                                                                    height="103.44475247524754"
                                                                                    width="91.0815533538485">
                                                                                    <g><svg xmlns="http://www.w3.org/2000/svg"
                                                                                            xmlns:xlink="http://www.w3.org/1999/xlink"
                                                                                            version="1.1" x="0" y="0"
                                                                                            viewBox="4.6299986036262855 2.0003847563233697 38.741001428029655 43.99961524367663"
                                                                                            enable-background="new 0 0 48 48"
                                                                                            xml:space="preserve"
                                                                                            height="103.44475247524754"
                                                                                            width="91.0815533538485"
                                                                                            class="icon-icon-0"
                                                                                            data-fill-palette-color="accent"
                                                                                            id="SvgjsSvg5624">
                                                                                            <path
                                                                                                d="M38.047 8.691V2.501A0.496 0.496 0 0 0 37.459 2.009 19.7 19.7 0 0 0 24 11.297C21.06 6.397 16.2 3.03 10.54 2.009A0.5 0.5 0 0 0 9.95 2.5V8.705A16 16 0 0 0 4.845 11.032 0.5 0.5 0 0 0 4.63 11.443V44.638A0.5 0.5 0 0 0 5.415 45.05C10.979 41.199 18.489 41.541 23.679 45.882L23.696 45.892C23.705 45.9 23.713 45.909 23.722 45.914 23.736 45.923 23.753 45.925 23.768 45.933A0.4 0.4 0 0 0 23.88 45.979C23.891 45.982 23.901 45.99 23.912 45.992L24 46 24.074 45.995C24.104 45.991 24.133 45.974 24.162 45.965 24.183 45.958 24.203 45.954 24.222 45.944 24.229 45.941 24.237 45.941 24.243 45.937A0.5 0.5 0 0 0 24.325 45.88C29.514 41.542 37.022 41.199 42.585 45.048A0.5 0.5 0 0 0 43.371 44.638V11.443A0.5 0.5 0 0 0 43.156 11.032 16 16 0 0 0 38.047 8.691M10.95 3.108A18.71 18.71 0 0 1 23.499 12.431V43.701A19.7 19.7 0 0 0 10.95 35.283zM5.629 43.719V11.707A15 15 0 0 1 9.95 9.742V35.696A0.5 0.5 0 0 0 10.361 36.188 18.7 18.7 0 0 1 22.228 43.634C17.156 40.622 10.736 40.609 5.629 43.719M24.5 12.432A18.7 18.7 0 0 1 37.047 3.109V35.283A19.7 19.7 0 0 0 24.5 43.7zM42.369 43.719A16.07 16.07 0 0 0 34.006 41.381C31.141 41.381 28.28 42.141 25.756 43.643A18.7 18.7 0 0 1 37.637 36.189 0.5 0.5 0 0 0 38.047 35.697V9.726A15.1 15.1 0 0 1 42.369 11.707z"
                                                                                                fill="black"></path>
                                                                                            <path
                                                                                                d="M13.642 13.76A18.7 18.7 0 0 1 20.279 18.023 0.5 0.5 0 1 0 20.984 17.316 19.7 19.7 0 0 0 13.993 12.826 0.498 0.498 0 1 0 13.642 13.76"
                                                                                                fill="black"></path>
                                                                                            <path
                                                                                                d="M13.642 20.495A18.7 18.7 0 0 1 20.279 24.757 0.496 0.496 0 0 0 20.986 24.756 0.5 0.5 0 0 0 20.984 24.049 19.7 19.7 0 0 0 13.993 19.559 0.5 0.5 0 1 0 13.642 20.495"
                                                                                                fill="black"></path>
                                                                                            <path
                                                                                                d="M20.983 30.783A19.7 19.7 0 0 0 13.992 26.293 0.5 0.5 0 1 0 13.64 27.23 18.7 18.7 0 0 1 20.277 31.493 0.496 0.496 0 0 0 20.984 31.492 0.5 0.5 0 0 0 20.983 30.783"
                                                                                                fill="black"></path>
                                                                                            <path
                                                                                                d="M27.366 18.168A0.5 0.5 0 0 0 27.719 18.022 18.7 18.7 0 0 1 34.356 13.759C34.616 13.662 34.747 13.373 34.649 13.115S34.26 12.726 34.004 12.823A19.7 19.7 0 0 0 27.014 17.313 0.5 0.5 0 0 0 27.366 18.168"
                                                                                                fill="black"></path>
                                                                                            <path
                                                                                                d="M27.366 24.903A0.5 0.5 0 0 0 27.719 24.757 18.7 18.7 0 0 1 34.356 20.495 0.5 0.5 0 1 0 34.004 19.558 19.7 19.7 0 0 0 27.014 24.048 0.5 0.5 0 0 0 27.366 24.903"
                                                                                                fill="black"></path>
                                                                                            <path
                                                                                                d="M27.366 31.637A0.5 0.5 0 0 0 27.719 31.491 18.8 18.8 0 0 1 30.811 29.008 0.5 0.5 0 1 0 30.272 28.167 20 20 0 0 0 27.014 30.783 0.501 0.501 0 0 0 27.366 31.637"
                                                                                                fill="black"></path>
                                                                                        </svg></g>
                                                                                </svg>
                                                                            </g>
                                                                            <g></g>
                                                                        </svg></g>
                                                                </svg></g>
                                                        </svg></g>
                                                </svg></g>
                                            <defs>
                                                <mask></mask>
                                            </defs>
                                        </svg>
                                        <rect width="320" height="360" fill="black" stroke="none" visibility="hidden">
                                        </rect>
                                    </g>
                                </mask>
                            </svg>
                            <rect width="320" height="360" fill="black" stroke="none" visibility="hidden"></rect>
                        </g>
                    </mask>
                    <linearGradient x1="0" x2="1" y1="0.548" y2="0.55" id="018eb6ba-164e-4c12-ae90-b0c869fecd55">
                        <stop stop-color="#ff6cab" offset="0"></stop>
                        <stop stop-color="#7366ff" offset="1"></stop>
                    </linearGradient>
                </svg>
                <rect width="320" height="360" fill="none" stroke="none" visibility="hidden"></rect>
            </g>
        </svg></g>
</svg>